<mxfile host="app.diagrams.net" agent="Mozilla/5.0 (Windows NT 10.0; Win64; x64) AppleWebKit/537.36 (KHTML, like Gecko) Chrome/141.0.0.0 Safari/537.36" version="28.2.3">
  <diagram name="Page-1" id="VIrr3FcicjefTnKExSes">
    <mxGraphModel dx="582" dy="299" grid="1" gridSize="10" guides="1" tooltips="1" connect="1" arrows="1" fold="1" page="1" pageScale="1" pageWidth="850" pageHeight="1100" math="0" shadow="0">
      <root>
        <mxCell id="0" />
        <mxCell id="1" parent="0" />
        <mxCell id="w3Bdly0N5Gflq8OKaBdq-10" value="" style="edgeStyle=orthogonalEdgeStyle;rounded=0;orthogonalLoop=1;jettySize=auto;html=1;" edge="1" parent="1" source="w3Bdly0N5Gflq8OKaBdq-2" target="w3Bdly0N5Gflq8OKaBdq-3">
          <mxGeometry relative="1" as="geometry" />
        </mxCell>
        <mxCell id="w3Bdly0N5Gflq8OKaBdq-2" value="&lt;div&gt;System&lt;/div&gt;Reset" style="ellipse;whiteSpace=wrap;html=1;" vertex="1" parent="1">
          <mxGeometry x="370" y="40" width="100" height="60" as="geometry" />
        </mxCell>
        <mxCell id="w3Bdly0N5Gflq8OKaBdq-24" value="" style="edgeStyle=orthogonalEdgeStyle;rounded=0;orthogonalLoop=1;jettySize=auto;html=1;" edge="1" parent="1" source="w3Bdly0N5Gflq8OKaBdq-3" target="w3Bdly0N5Gflq8OKaBdq-8">
          <mxGeometry relative="1" as="geometry" />
        </mxCell>
        <mxCell id="w3Bdly0N5Gflq8OKaBdq-34" value="No" style="edgeLabel;html=1;align=center;verticalAlign=middle;resizable=0;points=[];" vertex="1" connectable="0" parent="w3Bdly0N5Gflq8OKaBdq-24">
          <mxGeometry x="-0.2253" relative="1" as="geometry">
            <mxPoint x="-21" as="offset" />
          </mxGeometry>
        </mxCell>
        <mxCell id="w3Bdly0N5Gflq8OKaBdq-3" value="BTN&amp;nbsp;&lt;div&gt;Pressed?&lt;/div&gt;" style="rhombus;whiteSpace=wrap;html=1;" vertex="1" parent="1">
          <mxGeometry x="366.25" y="130" width="107.5" height="80" as="geometry" />
        </mxCell>
        <mxCell id="w3Bdly0N5Gflq8OKaBdq-20" value="" style="edgeStyle=orthogonalEdgeStyle;rounded=0;orthogonalLoop=1;jettySize=auto;html=1;" edge="1" parent="1" source="w3Bdly0N5Gflq8OKaBdq-4" target="w3Bdly0N5Gflq8OKaBdq-5">
          <mxGeometry relative="1" as="geometry" />
        </mxCell>
        <mxCell id="w3Bdly0N5Gflq8OKaBdq-4" value="Fetch and return the latest firmware version number" style="rounded=0;whiteSpace=wrap;html=1;" vertex="1" parent="1">
          <mxGeometry x="360" y="250" width="120" height="60" as="geometry" />
        </mxCell>
        <mxCell id="w3Bdly0N5Gflq8OKaBdq-13" value="" style="edgeStyle=orthogonalEdgeStyle;rounded=0;orthogonalLoop=1;jettySize=auto;html=1;" edge="1" parent="1" source="w3Bdly0N5Gflq8OKaBdq-5" target="w3Bdly0N5Gflq8OKaBdq-7">
          <mxGeometry relative="1" as="geometry" />
        </mxCell>
        <mxCell id="w3Bdly0N5Gflq8OKaBdq-36" value="Yes" style="edgeLabel;html=1;align=center;verticalAlign=middle;resizable=0;points=[];" vertex="1" connectable="0" parent="w3Bdly0N5Gflq8OKaBdq-13">
          <mxGeometry x="-0.4082" relative="1" as="geometry">
            <mxPoint as="offset" />
          </mxGeometry>
        </mxCell>
        <mxCell id="w3Bdly0N5Gflq8OKaBdq-22" value="" style="edgeStyle=orthogonalEdgeStyle;rounded=0;orthogonalLoop=1;jettySize=auto;html=1;" edge="1" parent="1" source="w3Bdly0N5Gflq8OKaBdq-5" target="w3Bdly0N5Gflq8OKaBdq-9">
          <mxGeometry relative="1" as="geometry" />
        </mxCell>
        <mxCell id="w3Bdly0N5Gflq8OKaBdq-37" value="No" style="edgeLabel;html=1;align=center;verticalAlign=middle;resizable=0;points=[];" vertex="1" connectable="0" parent="w3Bdly0N5Gflq8OKaBdq-22">
          <mxGeometry x="-0.2249" relative="1" as="geometry">
            <mxPoint as="offset" />
          </mxGeometry>
        </mxCell>
        <mxCell id="w3Bdly0N5Gflq8OKaBdq-5" value="User require update?" style="rhombus;whiteSpace=wrap;html=1;" vertex="1" parent="1">
          <mxGeometry x="366.25" y="350" width="107.5" height="80" as="geometry" />
        </mxCell>
        <mxCell id="w3Bdly0N5Gflq8OKaBdq-7" value="Download &amp;amp; Verify&lt;div&gt;Swap VTOR, MSP&lt;/div&gt;&lt;div&gt;Update Active Bank status&lt;/div&gt;" style="rounded=0;whiteSpace=wrap;html=1;" vertex="1" parent="1">
          <mxGeometry x="340" y="470" width="160" height="60" as="geometry" />
        </mxCell>
        <mxCell id="w3Bdly0N5Gflq8OKaBdq-8" value="Execute Active Bank Binaries" style="rounded=0;whiteSpace=wrap;html=1;" vertex="1" parent="1">
          <mxGeometry x="570" y="140" width="120" height="60" as="geometry" />
        </mxCell>
        <mxCell id="w3Bdly0N5Gflq8OKaBdq-9" value="&lt;div&gt;Custom&lt;/div&gt;&lt;div&gt;Bootloader&lt;/div&gt;" style="rounded=0;whiteSpace=wrap;html=1;" vertex="1" parent="1">
          <mxGeometry x="190" y="360" width="120" height="60" as="geometry" />
        </mxCell>
        <mxCell id="w3Bdly0N5Gflq8OKaBdq-16" style="edgeStyle=orthogonalEdgeStyle;rounded=0;orthogonalLoop=1;jettySize=auto;html=1;exitX=0.5;exitY=1;exitDx=0;exitDy=0;" edge="1" parent="1" source="w3Bdly0N5Gflq8OKaBdq-4" target="w3Bdly0N5Gflq8OKaBdq-4">
          <mxGeometry relative="1" as="geometry" />
        </mxCell>
        <mxCell id="w3Bdly0N5Gflq8OKaBdq-19" value="" style="endArrow=classic;html=1;rounded=0;entryX=0.5;entryY=0;entryDx=0;entryDy=0;exitX=0.5;exitY=1;exitDx=0;exitDy=0;" edge="1" parent="1" source="w3Bdly0N5Gflq8OKaBdq-3" target="w3Bdly0N5Gflq8OKaBdq-4">
          <mxGeometry width="50" height="50" relative="1" as="geometry">
            <mxPoint x="400" y="310" as="sourcePoint" />
            <mxPoint x="450" y="260" as="targetPoint" />
          </mxGeometry>
        </mxCell>
        <mxCell id="w3Bdly0N5Gflq8OKaBdq-35" value="Yes" style="edgeLabel;html=1;align=center;verticalAlign=middle;resizable=0;points=[];" vertex="1" connectable="0" parent="w3Bdly0N5Gflq8OKaBdq-19">
          <mxGeometry x="-0.4441" y="-1" relative="1" as="geometry">
            <mxPoint as="offset" />
          </mxGeometry>
        </mxCell>
        <mxCell id="w3Bdly0N5Gflq8OKaBdq-21" value="Web Server (WiFi)&lt;div&gt;or PC Application&lt;/div&gt;" style="rounded=0;whiteSpace=wrap;html=1;" vertex="1" parent="1">
          <mxGeometry x="570" y="250" width="120" height="60" as="geometry" />
        </mxCell>
        <mxCell id="w3Bdly0N5Gflq8OKaBdq-26" value="" style="endArrow=none;dashed=1;html=1;rounded=0;exitX=0.5;exitY=0;exitDx=0;exitDy=0;" edge="1" parent="1" source="w3Bdly0N5Gflq8OKaBdq-9">
          <mxGeometry width="50" height="50" relative="1" as="geometry">
            <mxPoint x="360" y="300" as="sourcePoint" />
            <mxPoint x="366" y="170" as="targetPoint" />
            <Array as="points">
              <mxPoint x="250" y="170" />
            </Array>
          </mxGeometry>
        </mxCell>
        <mxCell id="w3Bdly0N5Gflq8OKaBdq-29" value="System&lt;div&gt;Reset&lt;/div&gt;" style="edgeLabel;html=1;align=center;verticalAlign=middle;resizable=0;points=[];fontSize=9;" vertex="1" connectable="0" parent="w3Bdly0N5Gflq8OKaBdq-26">
          <mxGeometry x="-0.2643" y="-3" relative="1" as="geometry">
            <mxPoint x="67" y="-77" as="offset" />
          </mxGeometry>
        </mxCell>
        <mxCell id="w3Bdly0N5Gflq8OKaBdq-28" value="" style="endArrow=none;dashed=1;html=1;rounded=0;entryX=0;entryY=0.5;entryDx=0;entryDy=0;exitX=1;exitY=0.5;exitDx=0;exitDy=0;" edge="1" parent="1" source="w3Bdly0N5Gflq8OKaBdq-4" target="w3Bdly0N5Gflq8OKaBdq-21">
          <mxGeometry width="50" height="50" relative="1" as="geometry">
            <mxPoint x="360" y="300" as="sourcePoint" />
            <mxPoint x="410" y="250" as="targetPoint" />
          </mxGeometry>
        </mxCell>
        <mxCell id="w3Bdly0N5Gflq8OKaBdq-31" value="UART / WiFi" style="edgeLabel;html=1;align=center;verticalAlign=middle;resizable=0;points=[];fontSize=9;" vertex="1" connectable="0" parent="w3Bdly0N5Gflq8OKaBdq-28">
          <mxGeometry x="-0.1462" relative="1" as="geometry">
            <mxPoint x="11" y="-10" as="offset" />
          </mxGeometry>
        </mxCell>
        <mxCell id="w3Bdly0N5Gflq8OKaBdq-30" value="" style="endArrow=none;dashed=1;html=1;rounded=0;" edge="1" parent="1">
          <mxGeometry width="50" height="50" relative="1" as="geometry">
            <mxPoint x="260" y="170" as="sourcePoint" />
            <mxPoint x="350" y="500" as="targetPoint" />
            <Array as="points">
              <mxPoint x="170" y="170" />
              <mxPoint x="170" y="500" />
            </Array>
          </mxGeometry>
        </mxCell>
        <mxCell id="w3Bdly0N5Gflq8OKaBdq-33" value="" style="endArrow=none;dashed=1;html=1;rounded=0;entryX=0.5;entryY=1;entryDx=0;entryDy=0;exitX=1;exitY=0.5;exitDx=0;exitDy=0;" edge="1" parent="1" source="w3Bdly0N5Gflq8OKaBdq-7" target="w3Bdly0N5Gflq8OKaBdq-21">
          <mxGeometry width="50" height="50" relative="1" as="geometry">
            <mxPoint x="550" y="400" as="sourcePoint" />
            <mxPoint x="600" y="350" as="targetPoint" />
            <Array as="points">
              <mxPoint x="630" y="500" />
            </Array>
          </mxGeometry>
        </mxCell>
      </root>
    </mxGraphModel>
  </diagram>
</mxfile>
